<svg width="1024" height="1024" viewBox="0 0 1024 1024" fill="none" xmlns="http://www.w3.org/2000/svg" role="img" aria-labelledby="title">
  <title id="title">Agely app icon</title>
  <rect width="1024" height="1024" rx="226" fill="url(#background)"/>
  <path d="M292.185 220.79C339.648 168.25 413.608 130.067 485.734 119.971C554.858 110.296 621.614 109.947 709.059 142.025C818.064 182.012 834.864 231.184 833.127 281.721C829.845 280.427 810.199 266.423 799.664 258.912L799.643 258.897C796.243 256.474 793.796 254.729 793.16 254.311C792.455 253.848 793.531 256.395 795.614 261.325C801.228 274.614 815.315 305.274 819.127 341.037C821.254 360.991 818.617 382.204 818.064 390.396C817.532 398.273 818.064 419.277 819.225 427.153C821.376 441.739 828.644 450.782 840.342 463.91C845.714 469.938 856.481 478.613 861.798 483.864C876.155 498.041 889.315 502.767 892.506 515.894C895.696 529.022 884.369 537.997 877.617 542.674C870.865 547.352 861.665 553.701 857.412 558.427C847.798 566.008 852.695 578.085 856.108 586.101C856.978 588.143 857.793 590.059 858.323 591.798C860.929 600.364 862.667 609.786 861.798 612.355C861.798 613.537 857.114 616.881 852.18 620.403C846.378 624.545 840.231 628.934 840.946 630.343C841.207 630.859 842.097 631.724 843.214 632.81C845.811 635.336 849.634 639.054 849.634 642.335C849.634 646.676 844.675 651.991 840.342 656.634C836.98 660.237 833.995 663.435 833.995 665.463C833.995 672.671 835.918 682.721 837.741 692.251C839.384 700.841 840.946 709.008 840.946 714.287C840.946 725.422 839.208 745.123 814.881 758.828C792.659 771.348 730.32 770.974 705.408 770.82C707.151 770.816 703.048 770.806 705.408 770.82C690.698 770.73 681.627 776.842 679.135 778.756C675.289 781.711 666.52 788.709 666.52 801.434C666.52 808.265 659.161 814.092 640.765 817.257C622.368 820.421 571.791 827.277 521.892 827.277C471.992 827.277 394.808 830.969 378.325 817.3C370.725 810.998 370.725 784.744 370.725 784.744C370.725 784.744 370.725 794.892 370.725 766.626C370.725 746.792 363.185 723.03 345.369 705.447C337.793 697.971 309.245 669.529 300.691 659.563C272.02 626.157 246.553 579.397 246.553 579.397C246.553 579.397 223.892 545.543 215.204 449.608C206.516 353.673 244.722 273.331 292.185 220.79Z" fill="white"/>
  <defs>
    <linearGradient id="background" x1="218" y1="136" x2="835" y2="900" gradientUnits="userSpaceOnUse">
      <stop stop-color="#6252FA"/>
      <stop offset="1" stop-color="#3E29D0"/>
    </linearGradient>
  </defs>
</svg>
